<svg width="90" height="84" viewBox="0 0 90 84" fill="none" xmlns="http://www.w3.org/2000/svg"><script xmlns=""/>
<rect x="6" y="6" width="78" height="18" fill="#DFDFDF"/>
<rect x="6" y="24" width="72" height="54" fill="black"/>
<rect x="6" width="6" height="6" fill="black"/>
<rect x="6" y="78" width="6" height="6" fill="black"/>
<rect x="12" width="6" height="6" fill="black"/>
<rect x="12" y="78" width="6" height="6" fill="black"/>
<rect x="18" width="6" height="6" fill="black"/>
<rect x="18" y="78" width="6" height="6" fill="black"/>
<rect x="24" width="6" height="6" fill="black"/>
<rect x="24" y="78" width="6" height="6" fill="black"/>
<rect x="30" width="6" height="6" fill="black"/>
<rect x="30" y="78" width="6" height="6" fill="black"/>
<rect x="36" width="6" height="6" fill="black"/>
<rect x="36" y="78" width="6" height="6" fill="black"/>
<rect x="42" width="6" height="6" fill="black"/>
<rect x="42" y="78" width="6" height="6" fill="black"/>
<rect x="48" width="6" height="6" fill="black"/>
<rect x="48" y="78" width="6" height="6" fill="black"/>
<rect x="54" width="6" height="6" fill="black"/>
<rect x="54" y="78" width="6" height="6" fill="black"/>
<rect x="60" width="6" height="6" fill="black"/>
<rect x="60" y="78" width="6" height="6" fill="black"/>
<rect x="66" width="6" height="6" fill="black"/>
<rect x="66" y="78" width="6" height="6" fill="black"/>
<rect x="72" width="6" height="6" fill="black"/>
<rect x="72" y="78" width="6" height="6" fill="black"/>
<rect x="78" width="6" height="6" fill="black"/>
<rect x="12" y="12" width="6" height="6" fill="#E10500"/>
<rect x="22" y="12" width="6" height="6" fill="#FFD800"/>
<rect x="32" y="12" width="6" height="6" fill="#00A514"/>
<rect x="78" y="78" width="6" height="6" fill="black"/>
<rect x="84" y="6" width="6" height="6" fill="black"/>
<rect x="84" y="12" width="6" height="6" fill="black"/>
<rect x="84" y="18" width="6" height="6" fill="black"/>
<rect x="84" y="24" width="6" height="6" fill="black"/>
<rect x="78" y="24" width="6" height="6" fill="#242424"/>
<rect x="84" y="30" width="6" height="6" fill="black"/>
<rect x="78" y="30" width="6" height="6" fill="#242424"/>
<rect x="84" y="36" width="6" height="6" fill="black"/>
<rect x="78" y="36" width="6" height="6" fill="#242424"/>
<rect x="84" y="72" width="6" height="6" transform="rotate(90 84 72)" fill="#242424"/>
<rect x="78" y="42" width="6" height="6" fill="#242424"/>
<rect x="84" y="42" width="6" height="6" fill="black"/>
<rect x="78" y="48" width="6" height="6" fill="#242424"/>
<rect x="78" y="72" width="6" height="6" transform="rotate(90 78 72)" fill="#242424"/>
<rect x="78" y="54" width="6" height="6" fill="#242424"/>
<rect x="84" y="48" width="6" height="6" fill="black"/>
<rect x="78" y="60" width="6" height="6" fill="#242424"/>
<rect x="72" y="72" width="6" height="6" transform="rotate(90 72 72)" fill="#242424"/>
<rect x="48" y="72" width="6" height="6" transform="rotate(90 48 72)" fill="#242424"/>
<rect x="78" y="66" width="6" height="6" fill="#242424"/>
<rect x="66" y="72" width="6" height="6" transform="rotate(90 66 72)" fill="#242424"/>
<rect x="84" y="54" width="6" height="6" fill="black"/>
<rect x="60" y="72" width="6" height="6" transform="rotate(90 60 72)" fill="#242424"/>
<rect x="42" y="72" width="6" height="6" transform="rotate(90 42 72)" fill="#242424"/>
<rect x="54" y="72" width="6" height="6" transform="rotate(90 54 72)" fill="#242424"/>
<rect x="84" y="60" width="6" height="6" fill="black"/>
<rect x="36" y="72" width="6" height="6" transform="rotate(90 36 72)" fill="#242424"/>
<rect x="84" y="66" width="6" height="6" fill="black"/>
<rect x="30" y="72" width="6" height="6" transform="rotate(90 30 72)" fill="#242424"/>
<rect x="84" y="72" width="6" height="6" fill="black"/>
<rect y="6" width="6" height="6" fill="black"/>
<rect y="12" width="6" height="6" fill="black"/>
<rect y="18" width="6" height="6" fill="black"/>
<rect y="24" width="6" height="6" fill="black"/>
<rect y="30" width="6" height="6" fill="black"/>
<rect y="36" width="6" height="6" fill="black"/>
<rect y="42" width="6" height="6" fill="black"/>
<rect y="48" width="6" height="6" fill="black"/>
<rect y="54" width="6" height="6" fill="black"/>
<rect x="12" y="6" width="6" height="6" fill="#C8C8C8"/>
<rect x="6" y="6" width="6" height="6" fill="#C8C8C8"/>
<rect y="60" width="6" height="6" fill="black"/>
<rect x="6" y="12" width="6" height="6" fill="#C8C8C8"/>
<rect y="66" width="6" height="6" fill="black"/>
<rect x="6" y="18" width="6" height="6" fill="#C8C8C8"/>
<rect y="72" width="6" height="6" fill="black"/>
<rect x="6" y="72" width="6" height="6" fill="#242424"/>
<rect x="12" y="72" width="6" height="6" fill="#242424"/>
<rect x="18" y="72" width="6" height="6" fill="#242424"/>
<path d="M46.723 43.7704L46.723 30.8499L43.4424 30.8499L43.4424 34.0821L40.1647 34.0821L40.1647 37.3115L36.8869 37.3115L36.8869 34.0821L33.6091 34.0821L33.6091 30.8499L30.3314 30.8499L30.3314 43.7704L27.0508 43.7704L27.0508 46.9999L36.8869 46.9999L36.8869 43.7704L33.6091 43.7704L33.6091 40.541L36.8869 40.541L36.8869 43.7704L40.1647 43.7704L40.1647 40.541L43.4424 40.541L43.4424 43.7704L40.1647 43.7704L40.1647 46.9999L50.0008 46.9999L50.0008 43.7704L46.723 43.7704Z" fill="white"/>
<rect x="16" y="30" width="3.4" height="3.4" fill="white"/>
<rect x="19.4004" y="33.4001" width="3.4" height="3.4" fill="white"/>
<rect x="22.8008" y="36.8" width="3.4" height="3.4" fill="white"/>
<rect x="19.4004" y="40.2001" width="3.4" height="3.4" fill="white"/>
<rect x="16" y="43.5999" width="3.4" height="3.4" fill="white"/>
<script xmlns=""/></svg>